{
    "asset" : {
        "generator" : "Khronos glTF Blender I/O v1.6.16",
        "version" : "2.0"
    },
    "scene" : 0,
    "scenes" : [
        {
            "name" : "Scene",
            "nodes" : [
                0,
                1,
                2,
                7,
                8,
                9
            ]
        }
    ],
    "nodes" : [
        {
            "name" : "Light.001",
            "rotation" : [
                0.16907575726509094,
                0.7558803558349609,
                -0.27217137813568115,
                0.570947527885437
            ],
            "translation" : [
                4.076245307922363,
                5.903861999511719,
                -1.0054539442062378
            ]
        },
        {
            "name" : "Camera",
            "rotation" : [
                0.483536034822464,
                0.33687159419059753,
                -0.20870360732078552,
                0.7804827094078064
            ],
            "translation" : [
                7.358891487121582,
                4.958309173583984,
                6.925790786743164
            ]
        },
        {
            "name" : "Light",
            "rotation" : [
                0.16907575726509094,
                0.7558803558349609,
                -0.27217137813568115,
                0.570947527885437
            ],
            "translation" : [
                4.076245307922363,
                5.903861999511719,
                -1.0054539442062378
            ]
        },
        {
            "mesh" : 0,
            "name" : "Cube.001"
        },
        {
            "mesh" : 1,
            "name" : "Cube.002"
        },
        {
            "mesh" : 2,
            "name" : "Cube.003"
        },
        {
            "mesh" : 3,
            "name" : "Cube.005"
        },
        {
            "children" : [
                3,
                4,
                5,
                6
            ],
            "mesh" : 4,
            "name" : "mesa"
        },
        {
            "mesh" : 5,
            "name" : "cadeira"
        },
        {
            "mesh" : 6,
            "name" : "cadeira.001"
        }
    ],
    "animations" : [
        {
            "channels" : [
                {
                    "sampler" : 0,
                    "target" : {
                        "node" : 8,
                        "path" : "translation"
                    }
                },
                {
                    "sampler" : 1,
                    "target" : {
                        "node" : 8,
                        "path" : "rotation"
                    }
                }
            ],
            "name" : "cadeiraAction",
            "samplers" : [
                {
                    "input" : 25,
                    "interpolation" : "LINEAR",
                    "output" : 26
                },
                {
                    "input" : 25,
                    "interpolation" : "LINEAR",
                    "output" : 27
                }
            ]
        },
        {
            "channels" : [
                {
                    "sampler" : 0,
                    "target" : {
                        "node" : 9,
                        "path" : "translation"
                    }
                },
                {
                    "sampler" : 1,
                    "target" : {
                        "node" : 9,
                        "path" : "rotation"
                    }
                }
            ],
            "name" : "cadeira.001Action",
            "samplers" : [
                {
                    "input" : 25,
                    "interpolation" : "LINEAR",
                    "output" : 28
                },
                {
                    "input" : 25,
                    "interpolation" : "LINEAR",
                    "output" : 29
                }
            ]
        }
    ],
    "materials" : [
        {
            "doubleSided" : true,
            "name" : "Material.001",
            "pbrMetallicRoughness" : {
                "baseColorTexture" : {
                    "index" : 0
                },
                "metallicFactor" : 0,
                "roughnessFactor" : 0.5
            }
        }
    ],
    "meshes" : [
        {
            "name" : "Cube.008",
            "primitives" : [
                {
                    "attributes" : {
                        "POSITION" : 0,
                        "NORMAL" : 1,
                        "TEXCOORD_0" : 2
                    },
                    "indices" : 3,
                    "material" : 0
                }
            ]
        },
        {
            "name" : "Cube.003",
            "primitives" : [
                {
                    "attributes" : {
                        "POSITION" : 4,
                        "NORMAL" : 5,
                        "TEXCOORD_0" : 6
                    },
                    "indices" : 3,
                    "material" : 0
                }
            ]
        },
        {
            "name" : "Cube.006",
            "primitives" : [
                {
                    "attributes" : {
                        "POSITION" : 7,
                        "NORMAL" : 8,
                        "TEXCOORD_0" : 9
                    },
                    "indices" : 3,
                    "material" : 0
                }
            ]
        },
        {
            "name" : "Cube.007",
            "primitives" : [
                {
                    "attributes" : {
                        "POSITION" : 10,
                        "NORMAL" : 11,
                        "TEXCOORD_0" : 12
                    },
                    "indices" : 3,
                    "material" : 0
                }
            ]
        },
        {
            "name" : "Cube.005",
            "primitives" : [
                {
                    "attributes" : {
                        "POSITION" : 13,
                        "NORMAL" : 14,
                        "TEXCOORD_0" : 15
                    },
                    "indices" : 16,
                    "material" : 0
                }
            ]
        },
        {
            "name" : "Cube.001",
            "primitives" : [
                {
                    "attributes" : {
                        "POSITION" : 17,
                        "NORMAL" : 18,
                        "TEXCOORD_0" : 19
                    },
                    "indices" : 20,
                    "material" : 0
                }
            ]
        },
        {
            "name" : "Cube.002",
            "primitives" : [
                {
                    "attributes" : {
                        "POSITION" : 21,
                        "NORMAL" : 22,
                        "TEXCOORD_0" : 23
                    },
                    "indices" : 24,
                    "material" : 0
                }
            ]
        }
    ],
    "textures" : [
        {
            "sampler" : 0,
            "source" : 0
        }
    ],
    "images" : [
        {
            "bufferView" : 4,
            "mimeType" : "image/jpeg",
            "name" : "wood0"
        }
    ],
    "accessors" : [
        {
            "bufferView" : 0,
            "componentType" : 5126,
            "count" : 24,
            "max" : [
                0.49721217155456543,
                0.9927668571472168,
                -0.4075460433959961
            ],
            "min" : [
                0.4370253086090088,
                0.2603814899921417,
                -0.48441028594970703
            ],
            "type" : "VEC3"
        },
        {
            "bufferView" : 1,
            "componentType" : 5126,
            "count" : 24,
            "type" : "VEC3"
        },
        {
            "bufferView" : 2,
            "componentType" : 5126,
            "count" : 24,
            "type" : "VEC2"
        },
        {
            "bufferView" : 3,
            "componentType" : 5123,
            "count" : 36,
            "type" : "SCALAR"
        },
        {
            "bufferView" : 5,
            "componentType" : 5126,
            "count" : 24,
            "max" : [
                -0.4340001046657562,
                0.9925811290740967,
                -0.42211925983428955
            ],
            "min" : [
                -0.49418696761131287,
                0.2601957619190216,
                -0.4989835023880005
            ],
            "type" : "VEC3"
        },
        {
            "bufferView" : 6,
            "componentType" : 5126,
            "count" : 24,
            "type" : "VEC3"
        },
        {
            "bufferView" : 7,
            "componentType" : 5126,
            "count" : 24,
            "type" : "VEC2"
        },
        {
            "bufferView" : 8,
            "componentType" : 5126,
            "count" : 24,
            "max" : [
                -0.4340001046657562,
                1.0044490098953247,
                0.5092051029205322
            ],
            "min" : [
                -0.49418696761131287,
                0.2720637023448944,
                0.4323408305644989
            ],
            "type" : "VEC3"
        },
        {
            "bufferView" : 9,
            "componentType" : 5126,
            "count" : 24,
            "type" : "VEC3"
        },
        {
            "bufferView" : 10,
            "componentType" : 5126,
            "count" : 24,
            "type" : "VEC2"
        },
        {
            "bufferView" : 11,
            "componentType" : 5126,
            "count" : 24,
            "max" : [
                0.49721217155456543,
                1.0044490098953247,
                0.5092051029205322
            ],
            "min" : [
                0.4370253086090088,
                0.2720637023448944,
                0.4323408305644989
            ],
            "type" : "VEC3"
        },
        {
            "bufferView" : 12,
            "componentType" : 5126,
            "count" : 24,
            "type" : "VEC3"
        },
        {
            "bufferView" : 13,
            "componentType" : 5126,
            "count" : 24,
            "type" : "VEC2"
        },
        {
            "bufferView" : 14,
            "componentType" : 5126,
            "count" : 24,
            "max" : [
                0.5013488531112671,
                1.0317182540893555,
                0.5013140439987183
            ],
            "min" : [
                -0.5013488531112671,
                0.9682818055152893,
                -0.5013140439987183
            ],
            "type" : "VEC3"
        },
        {
            "bufferView" : 15,
            "componentType" : 5126,
            "count" : 24,
            "type" : "VEC3"
        },
        {
            "bufferView" : 16,
            "componentType" : 5126,
            "count" : 24,
            "type" : "VEC2"
        },
        {
            "bufferView" : 17,
            "componentType" : 5123,
            "count" : 36,
            "type" : "SCALAR"
        },
        {
            "bufferView" : 18,
            "componentType" : 5126,
            "count" : 190,
            "max" : [
                -0.2665889859199524,
                1.2177088260650635,
                0.21163803339004517
            ],
            "min" : [
                -0.7713695764541626,
                0.2609206438064575,
                -0.20869499444961548
            ],
            "type" : "VEC3"
        },
        {
            "bufferView" : 19,
            "componentType" : 5126,
            "count" : 190,
            "type" : "VEC3"
        },
        {
            "bufferView" : 20,
            "componentType" : 5126,
            "count" : 190,
            "type" : "VEC2"
        },
        {
            "bufferView" : 21,
            "componentType" : 5123,
            "count" : 216,
            "type" : "SCALAR"
        },
        {
            "bufferView" : 22,
            "componentType" : 5126,
            "count" : 216,
            "max" : [
                0.7758819460868835,
                1.2177088260650635,
                0.22578297555446625
            ],
            "min" : [
                0.2618861794471741,
                0.2609206438064575,
                -0.20566238462924957
            ],
            "type" : "VEC3"
        },
        {
            "bufferView" : 23,
            "componentType" : 5126,
            "count" : 216,
            "type" : "VEC3"
        },
        {
            "bufferView" : 24,
            "componentType" : 5126,
            "count" : 216,
            "type" : "VEC2"
        },
        {
            "bufferView" : 25,
            "componentType" : 5123,
            "count" : 216,
            "type" : "SCALAR"
        },
        {
            "bufferView" : 26,
            "componentType" : 5126,
            "count" : 51,
            "max" : [
                2.0833333333333335
            ],
            "min" : [
                0
            ],
            "type" : "SCALAR"
        },
        {
            "bufferView" : 27,
            "componentType" : 5126,
            "count" : 51,
            "type" : "VEC3"
        },
        {
            "bufferView" : 28,
            "componentType" : 5126,
            "count" : 51,
            "type" : "VEC4"
        },
        {
            "bufferView" : 29,
            "componentType" : 5126,
            "count" : 51,
            "type" : "VEC3"
        },
        {
            "bufferView" : 30,
            "componentType" : 5126,
            "count" : 51,
            "type" : "VEC4"
        }
    ],
    "bufferViews" : [
        {
            "buffer" : 0,
            "byteLength" : 288,
            "byteOffset" : 0
        },
        {
            "buffer" : 0,
            "byteLength" : 288,
            "byteOffset" : 288
        },
        {
            "buffer" : 0,
            "byteLength" : 192,
            "byteOffset" : 576
        },
        {
            "buffer" : 0,
            "byteLength" : 72,
            "byteOffset" : 768
        },
        {
            "buffer" : 0,
            "byteLength" : 4082,
            "byteOffset" : 840
        },
        {
            "buffer" : 0,
            "byteLength" : 288,
            "byteOffset" : 4924
        },
        {
            "buffer" : 0,
            "byteLength" : 288,
            "byteOffset" : 5212
        },
        {
            "buffer" : 0,
            "byteLength" : 192,
            "byteOffset" : 5500
        },
        {
            "buffer" : 0,
            "byteLength" : 288,
            "byteOffset" : 5692
        },
        {
            "buffer" : 0,
            "byteLength" : 288,
            "byteOffset" : 5980
        },
        {
            "buffer" : 0,
            "byteLength" : 192,
            "byteOffset" : 6268
        },
        {
            "buffer" : 0,
            "byteLength" : 288,
            "byteOffset" : 6460
        },
        {
            "buffer" : 0,
            "byteLength" : 288,
            "byteOffset" : 6748
        },
        {
            "buffer" : 0,
            "byteLength" : 192,
            "byteOffset" : 7036
        },
        {
            "buffer" : 0,
            "byteLength" : 288,
            "byteOffset" : 7228
        },
        {
            "buffer" : 0,
            "byteLength" : 288,
            "byteOffset" : 7516
        },
        {
            "buffer" : 0,
            "byteLength" : 192,
            "byteOffset" : 7804
        },
        {
            "buffer" : 0,
            "byteLength" : 72,
            "byteOffset" : 7996
        },
        {
            "buffer" : 0,
            "byteLength" : 2280,
            "byteOffset" : 8068
        },
        {
            "buffer" : 0,
            "byteLength" : 2280,
            "byteOffset" : 10348
        },
        {
            "buffer" : 0,
            "byteLength" : 1520,
            "byteOffset" : 12628
        },
        {
            "buffer" : 0,
            "byteLength" : 432,
            "byteOffset" : 14148
        },
        {
            "buffer" : 0,
            "byteLength" : 2592,
            "byteOffset" : 14580
        },
        {
            "buffer" : 0,
            "byteLength" : 2592,
            "byteOffset" : 17172
        },
        {
            "buffer" : 0,
            "byteLength" : 1728,
            "byteOffset" : 19764
        },
        {
            "buffer" : 0,
            "byteLength" : 432,
            "byteOffset" : 21492
        },
        {
            "buffer" : 0,
            "byteLength" : 204,
            "byteOffset" : 21924
        },
        {
            "buffer" : 0,
            "byteLength" : 612,
            "byteOffset" : 22128
        },
        {
            "buffer" : 0,
            "byteLength" : 816,
            "byteOffset" : 22740
        },
        {
            "buffer" : 0,
            "byteLength" : 612,
            "byteOffset" : 23556
        },
        {
            "buffer" : 0,
            "byteLength" : 816,
            "byteOffset" : 24168
        }
    ],
    "samplers" : [
        {
            "magFilter" : 9729,
            "minFilter" : 9987
        }
    ],
    "buffers" : [
        {
            "byteLength" : 24984,
            "uri" : "data:application/octet-stream;base64,"
        }
    ]
}
